<svg width="64" height="64" viewBox="0 0 64 64" fill="none" xmlns="http://www.w3.org/2000/svg">
<path fill-rule="evenodd" clip-rule="evenodd" d="M16 25.5998C18.133 17.0668 23.467 12.7998 32 12.7998C44.8 12.7998 46.4 22.3998 52.8 23.9998C57.067 25.0668 60.8 23.4668 64 19.1998C61.867 27.7328 56.533 31.9998 48 31.9998C35.2 31.9998 33.6 22.3998 27.2 20.7998C22.933 19.7328 19.2 21.3328 16 25.5998ZM0 44.7998C2.133 36.2668 7.467 31.9998 16 31.9998C28.8 31.9998 30.4 41.5998 36.8 43.1998C41.067 44.2668 44.8 42.6668 48 38.3998C45.867 46.9328 40.533 51.1998 32 51.1998C19.2 51.1998 17.6 41.5998 11.2 39.9998C6.933 38.9328 3.2 40.5328 0 44.7998Z" fill="white"/>
</svg>
